<svg width="16" height="16" viewBox="0 0 16 16" fill="none" xmlns="http://www.w3.org/2000/svg">
<path d="M4.6565 2C4.2795 2 3.953 2.1835 3.6565 2.4375C3.3595 2.6915 3.086 3.033 2.844 3.469C2.359 4.342 2 5.5665 2 7.094C2 7.877 2.1815 8.684 2.547 9.328C2.627 9.469 2.758 9.5625 2.8595 9.6875C2.588 10.0195 2.1405 10.6405 2.1405 10.6405L2.86 11.36C2.86 11.36 3.356 10.6765 3.6725 10.2975C3.8735 10.3835 4.063 10.5005 4.2975 10.5005C5.155 10.5005 6.0495 10.1255 6.8755 9.6565C7.141 9.86 7.44 10.0005 7.7505 10.0005C8.778 10.0005 9.559 9.397 10.11 8.86C10.27 8.7035 10.3775 8.5885 10.5005 8.4535C10.4985 8.5905 10.4945 8.7155 10.532 8.8755C10.561 8.9965 10.5945 9.147 10.7195 9.282C10.8445 9.4165 11.069 9.5005 11.2505 9.5005C11.6155 9.5005 11.8265 9.3325 12.0475 9.1725C12.268 9.0125 12.4775 8.821 12.7035 8.641C13.158 8.2815 13.643 8 14 8V7C13.207 7 12.588 7.469 12.0935 7.8595C11.8595 8.0445 11.6485 8.207 11.4845 8.328V8.2655C11.49 8.084 11.5175 7.8805 11.4845 7.6565C11.4648 7.52029 11.411 7.39128 11.328 7.2815C11.2245 7.135 10.992 7 10.797 7C10.5155 7 10.412 7.121 10.3125 7.203C10.2125 7.285 10.1385 7.369 10.047 7.4685C9.8635 7.668 9.6445 7.9085 9.406 8.1405C8.986 8.5505 8.492 8.8615 7.953 8.9375C8.3105 8.6505 8.67 8.365 8.922 8.047C9.254 7.629 9.5 7.203 9.5 6.703C9.5 6.422 9.465 6.037 9.25 5.672C9.035 5.307 8.5725 5 8 5C7.385 5 6.824 5.3025 6.4845 5.7815C6.1445 6.26 6 6.873 6 7.5935C6 8.084 6.1115 8.49 6.2655 8.8435C5.5705 9.2095 4.85 9.5 4.297 9.5C5.1425 8.2325 6 6.506 6 4.406C6 3.971 6.004 3.457 5.8595 2.9845C5.787 2.748 5.672 2.508 5.469 2.3125C5.265 2.1175 4.965 2 4.656 2H4.6565ZM4.6565 3C4.7465 3 4.75 3.0175 4.7815 3.047C4.8125 3.076 4.8495 3.1485 4.8905 3.281C4.9705 3.545 5 3.99 5 4.406C5 6.1775 4.242 7.7285 3.4845 8.891C3.467 8.861 3.4395 8.8595 3.422 8.828C3.162 8.373 3 7.711 3 7.094C3 5.7205 3.328 4.656 3.719 3.953C3.914 3.6015 4.115 3.344 4.297 3.1875C4.4785 3.031 4.633 3 4.6565 3ZM8 6C8.2775 6 8.3185 6.0665 8.3905 6.1875C8.463 6.3085 8.5 6.533 8.5 6.703C8.5 6.828 8.395 7.119 8.1405 7.4375C7.92 7.715 7.584 8.002 7.219 8.2815C7.131 8.08 7 7.9335 7 7.594C7 7.014 7.123 6.59 7.297 6.344C7.4705 6.0975 7.666 6 8 6ZM2 13V14H14V13H2Z" fill="white"/>
</svg>
